<?xml version="1.0" encoding="UTF-8"?>
<svg width="210" height="210" version="1.1" viewBox="0 0 210 210" xmlns="http://www.w3.org/2000/svg"><title>Latte</title><g id="Latte" fill="none" fill-rule="evenodd"><path id="Combined-Shape" d="m35.546 21.5 1e-3 153 152.95-8.2e-4v14.001h-167v-167zm20.824 1.7e-4c1.8301 4.429 4.545 8.5786 8.1447 12.178 14.645 14.645 38.388 14.645 53.033 0 3.5998-3.5998 6.3147-7.7493 8.1447-12.178l13.967-1.7e-4 -5.7405 5.7417c-11.985 11.985-12.105 31.343-0.35956 43.475l0.35956 0.36543c12.106 12.106 31.734 12.106 43.841 0 12.106-12.106 12.106-31.734 0-43.841l-5.7422-5.7417 16.483 8.2e-4 9.8e-4 101.26c-2.665 6.8105-6.5437 13.413-11.273 18.742l-85.724 4.1e-4c-9.118-10.393-15.004-25.66-15.004-38.003v-37.999l46.131 4.2e-4c-1.874-3.8079-3.0533-7.871-3.5381-12l-46.593 1.4e-4c-4.4183 0-8 3.5816-8 7.9998v41.999c0 12.557 4.6295 26.515 12.275 38.003l-20.275-1e-3v12l132-8.2e-4v9l-140.95 8.2e-4v-141zm99.469 0.79117 13.434 13.436 0.23678 0.24094c7.1823 7.4372 7.1034 19.289-0.23678 26.629-7.42 7.42-19.45 7.42-26.87 0l-0.23678-0.24094c-7.1823-7.4372-7.1034-19.289 0.23678-26.629zm-43.716-0.79098c-0.88668 1.3012-1.9071 2.5386-3.0614 3.6928-9.9584 9.9584-26.104 9.9584-36.062 0l-0.29576-0.30059c-1.0337-1.0678-1.9556-2.2035-2.7659-3.3926z" fill="#dfe6e9"/></g></svg>
